REM DIRINDEX 1\2,1\3
REM DIRNAME folder01,folder02,folder03
TITLE ""
FILE "Track10.mp3" MP3
  TRACK 01 AUDIO
    TITLE "0:"
    INDEX 01 00:00:00
  TRACK 02 AUDIO
    TITLE "3:cjc140_028"
    INDEX 01 00:00:05
  TRACK 03 AUDIO
    TITLE "2:cjc140_029"
    INDEX 01 00:01:58
  TRACK 04 AUDIO
    TITLE "2:cjc140_030"
    INDEX 01 00:06:35
  TRACK 05 AUDIO
    TITLE "2:cjc140_031"
    INDEX 01 00:09:45
  TRACK 06 AUDIO
    TITLE "0:"
    INDEX 01 00:14:68
